<?xml version="1.0" standalone="no"?>
<!DOCTYPE svg PUBLIC "-//W3C//DTD SVG 20010904//EN"
 "http://www.w3.org/TR/2001/REC-SVG-20010904/DTD/svg10.dtd">
<svg version="1.0" xmlns="http://www.w3.org/2000/svg"
 width="188.000000pt" height="188.000000pt" viewBox="0 0 188.000000 188.000000"
 preserveAspectRatio="xMidYMid meet">

<g transform="translate(0.000000,188.000000) scale(0.100000,-0.100000)"
fill="#000000" stroke="none">
<path d="M1197 1710 c-20 -5 -61 -22 -90 -36 -67 -35 -759 -438 -814 -476
-145 -98 -206 -270 -153 -428 12 -36 33 -81 48 -100 80 -109 309 -371 351
-403 142 -108 319 -149 481 -112 107 26 559 242 618 297 66 62 122 185 122
268 0 22 -25 193 -56 382 -61 381 -75 427 -153 506 -83 85 -240 130 -354 102z
m219 -103 c58 -29 109 -83 135 -141 10 -23 43 -196 74 -385 49 -304 54 -350
45 -399 -12 -65 -47 -129 -92 -168 -48 -40 -482 -251 -558 -270 -132 -34 -288
-5 -402 73 -59 41 -82 65 -252 268 -142 169 -160 203 -161 305 0 90 27 153 91
209 33 28 753 455 864 512 72 37 179 35 256 -4z"/>
</g>
</svg>
